<svg width="806" height="900" viewBox="0 0 806 900" fill="none" xmlns="http://www.w3.org/2000/svg">
<g clip-path="url(#clip0_334_5712)">
<rect width="806" height="900" fill="#131313"/>
<path fill-rule="evenodd" clip-rule="evenodd" d="M467.068 -18.0508C480.104 -14.5581 493.502 -22.2937 496.995 -35.3289C500.488 -48.364 492.752 -61.7625 479.717 -65.2553C466.682 -68.748 453.283 -61.0124 449.79 -47.9772C446.298 -34.9421 454.033 -21.5436 467.068 -18.0508ZM463.555 -4.93847C483.832 0.494704 504.674 -11.5385 510.107 -31.8154C515.54 -52.0923 503.507 -72.9344 483.23 -78.3676C462.953 -83.8008 442.111 -71.7676 436.678 -51.4907C431.245 -31.2138 443.278 -10.3717 463.555 -4.93847Z" fill="#EB5757"/>
<path fill-rule="evenodd" clip-rule="evenodd" d="M557.599 8.15459C556.301 8.90431 555.856 10.5648 556.606 11.8633L560.678 18.917C561.428 20.2156 563.088 20.6605 564.387 19.9108L596.832 1.17882L615.564 33.6236C616.313 34.9221 617.974 35.367 619.272 34.6173L626.326 30.5449C627.625 29.7951 628.07 28.1347 627.32 26.8361L608.588 -5.60863L640.818 -24.2169C642.117 -24.9666 642.562 -26.627 641.812 -27.9256L637.74 -34.9793C636.99 -36.2779 635.329 -36.7228 634.031 -35.9731L601.8 -17.3648L583.192 -49.5952C582.442 -50.8938 580.782 -51.3387 579.483 -50.589L572.43 -46.5165C571.131 -45.7668 570.686 -44.1064 571.436 -42.8078L590.044 -10.5774L557.599 8.15459Z" fill="white"/>
<path fill-rule="evenodd" clip-rule="evenodd" d="M718.825 49.4073C731.86 52.9 745.259 45.1644 748.752 32.1292C752.244 19.0941 744.509 5.69558 731.474 2.20283C718.438 -1.28993 705.04 6.44571 701.547 19.4809C698.054 32.516 705.79 45.9145 718.825 49.4073ZM715.312 62.5196C735.589 67.9528 756.431 55.9196 761.864 35.6427C767.297 15.3658 755.264 -5.47634 734.987 -10.9095C714.71 -16.3427 693.868 -4.30949 688.435 15.9674C683.002 36.2443 695.035 57.0864 715.312 62.5196Z" fill="#EB5757"/>
<path fill-rule="evenodd" clip-rule="evenodd" d="M809.357 75.6127C808.058 76.3624 807.613 78.0228 808.363 79.3214L812.435 86.3751C813.185 87.6737 814.846 88.1186 816.144 87.3689L848.589 68.6369L867.321 101.082C868.071 102.38 869.731 102.825 871.03 102.075L878.083 98.0029C879.382 97.2532 879.827 95.5928 879.077 94.2942L860.345 61.8494L892.576 43.2412C893.874 42.4915 894.319 40.831 893.569 39.5325L889.497 32.4787C888.747 31.1802 887.087 30.7353 885.788 31.485L853.558 50.0932L834.949 17.8628C834.2 16.5643 832.539 16.1193 831.241 16.8691L824.187 20.9415C822.888 21.6913 822.444 23.3517 823.193 24.6503L841.801 56.8807L809.357 75.6127Z" fill="white"/>
<path fill-rule="evenodd" clip-rule="evenodd" d="M55.7036 6.64058C68.7388 10.1333 82.1373 2.39771 85.63 -10.6374C89.1228 -23.6726 81.3872 -37.0711 68.352 -40.5639C55.3169 -44.0566 41.9183 -36.321 38.4256 -23.2858C34.9328 -10.2507 42.6685 3.14783 55.7036 6.64058ZM52.1902 19.7529C72.4671 25.1861 93.3092 13.1529 98.7424 -7.124C104.176 -27.4009 92.1424 -48.243 71.8655 -53.6762C51.5886 -59.1094 30.7464 -47.0762 25.3132 -26.7993C19.8801 -6.52238 31.9133 14.3198 52.1902 19.7529Z" fill="#EB5757"/>
<path fill-rule="evenodd" clip-rule="evenodd" d="M146.235 32.846C144.936 33.5957 144.491 35.2561 145.241 36.5547L149.313 43.6084C150.063 44.907 151.724 45.3519 153.022 44.6022L185.467 25.8702L204.199 58.315C204.949 59.6135 206.609 60.0584 207.908 59.3087L214.961 55.2362C216.26 54.4865 216.705 52.8261 215.955 51.5275L197.223 19.0827L229.453 0.474505C230.752 -0.275216 231.197 -1.93567 230.447 -3.23423L226.375 -10.288C225.625 -11.5865 223.965 -12.0314 222.666 -11.2817L190.436 7.32653L171.827 -24.9039C171.078 -26.2024 169.417 -26.6473 168.119 -25.8976L161.065 -21.8252C159.766 -21.0754 159.321 -19.415 160.071 -18.1164L178.679 14.114L146.235 32.846Z" fill="white"/>
<path fill-rule="evenodd" clip-rule="evenodd" d="M307.461 74.0987C320.496 77.5914 333.895 69.8558 337.387 56.8207C340.88 43.7855 333.144 30.387 320.109 26.8942C307.074 23.4015 293.676 31.1371 290.183 44.1723C286.69 57.2074 294.426 70.6059 307.461 74.0987ZM303.947 87.211C324.224 92.6442 345.067 80.611 350.5 60.3341C355.933 40.0572 343.9 19.2151 323.623 13.7819C303.346 8.34871 282.504 20.3819 277.071 40.6588C271.637 60.9357 283.671 81.7779 303.947 87.211Z" fill="#EB5757"/>
<path fill-rule="evenodd" clip-rule="evenodd" d="M397.992 100.304C396.693 101.054 396.249 102.714 396.998 104.013L401.071 111.067C401.82 112.365 403.481 112.81 404.779 112.06L437.224 93.3283L455.956 125.773C456.706 127.072 458.366 127.517 459.665 126.767L466.719 122.694C468.017 121.945 468.462 120.284 467.712 118.986L448.98 86.5408L481.211 67.9326C482.509 67.1829 482.954 65.5224 482.205 64.2239L478.132 57.1701C477.382 55.8716 475.722 55.4267 474.423 56.1764L442.193 74.7846L423.585 42.5542C422.835 41.2557 421.175 40.8108 419.876 41.5605L412.822 45.6329C411.524 46.3827 411.079 48.0431 411.829 49.3417L430.437 81.5721L397.992 100.304Z" fill="white"/>
<path fill-rule="evenodd" clip-rule="evenodd" d="M559.218 141.557C572.253 145.05 585.651 137.314 589.144 124.279C592.637 111.244 584.901 97.8451 571.866 94.3523C558.831 90.8596 545.433 98.5952 541.94 111.63C538.447 124.666 546.183 138.064 559.218 141.557ZM555.704 154.669C575.981 160.102 596.823 148.069 602.257 127.792C607.69 107.515 595.657 86.6732 575.38 81.24C555.103 75.8068 534.261 87.84 528.827 108.117C523.394 128.394 535.427 149.236 555.704 154.669Z" fill="#EB5757"/>
<path fill-rule="evenodd" clip-rule="evenodd" d="M649.749 167.762C648.45 168.512 648.005 170.172 648.755 171.471L652.828 178.525C653.577 179.823 655.238 180.268 656.536 179.518L688.981 160.786L707.713 193.231C708.463 194.53 710.123 194.975 711.422 194.225L718.475 190.152C719.774 189.403 720.219 187.742 719.469 186.444L700.737 153.999L732.968 135.391C734.266 134.641 734.711 132.981 733.961 131.682L729.889 124.628C729.139 123.33 727.479 122.885 726.18 123.634L693.95 142.243L675.342 110.012C674.592 108.714 672.931 108.269 671.633 109.019L664.579 113.091C663.281 113.841 662.836 115.501 663.585 116.8L682.194 149.03L649.749 167.762Z" fill="white"/>
<path fill-rule="evenodd" clip-rule="evenodd" d="M810.975 209.015C824.01 212.508 837.409 204.772 840.902 191.737C844.394 178.702 836.659 165.303 823.623 161.81C810.588 158.318 797.19 166.053 793.697 179.088C790.204 192.124 797.94 205.522 810.975 209.015ZM807.462 222.127C827.739 227.56 848.581 215.527 854.014 195.25C859.447 174.973 847.414 154.131 827.137 148.698C806.86 143.265 786.018 155.298 780.585 175.575C775.152 195.852 787.185 216.694 807.462 222.127Z" fill="#EB5757"/>
<path fill-rule="evenodd" clip-rule="evenodd" d="M-13.3728 124.995C-14.6713 125.745 -15.1162 127.406 -14.3665 128.704L-10.294 135.758C-9.54432 137.056 -7.88387 137.501 -6.58531 136.752L25.8594 118.02L44.5914 150.464C45.3412 151.763 47.0016 152.208 48.3002 151.458L55.3539 147.386C56.6524 146.636 57.0974 144.976 56.3476 143.677L37.6157 111.232L69.8461 92.624C71.1446 91.8743 71.5895 90.2138 70.8398 88.9153L66.7673 81.8616C66.0176 80.563 64.3572 80.1181 63.0586 80.8678L30.8282 99.476L12.22 67.2456C11.4702 65.9471 9.80979 65.5022 8.51124 66.2519L1.45751 70.3244C0.158957 71.0741 -0.285961 72.7345 0.46376 74.0331L19.072 106.263L-13.3728 124.995Z" fill="white"/>
<path fill-rule="evenodd" clip-rule="evenodd" d="M147.853 166.248C160.888 169.741 174.287 162.005 177.779 148.97C181.272 135.935 173.537 122.536 160.501 119.044C147.466 115.551 134.068 123.287 130.575 136.322C127.082 149.357 134.818 162.755 147.853 166.248ZM144.34 179.361C164.616 184.794 185.459 172.76 190.892 152.484C196.325 132.207 184.292 111.365 164.015 105.931C143.738 100.498 122.896 112.531 117.463 132.808C112.029 153.085 124.063 173.927 144.34 179.361Z" fill="#EB5757"/>
<path fill-rule="evenodd" clip-rule="evenodd" d="M238.385 192.454C237.086 193.203 236.641 194.864 237.391 196.162L241.463 203.216C242.213 204.515 243.873 204.96 245.172 204.21L277.617 185.478L296.349 217.923C297.098 219.221 298.759 219.666 300.057 218.916L307.111 214.844C308.41 214.094 308.855 212.434 308.105 211.135L289.373 178.69L321.603 160.082C322.902 159.332 323.347 157.672 322.597 156.373L318.525 149.32C317.775 148.021 316.114 147.576 314.816 148.326L282.586 166.934L263.977 134.704C263.228 133.405 261.567 132.96 260.269 133.71L253.215 137.782C251.916 138.532 251.471 140.193 252.221 141.491L270.829 173.722L238.385 192.454Z" fill="white"/>
<path fill-rule="evenodd" clip-rule="evenodd" d="M399.61 233.706C412.646 237.199 426.044 229.463 429.537 216.428C433.03 203.393 425.294 189.995 412.259 186.502C399.224 183.009 385.825 190.745 382.332 203.78C378.84 216.815 386.575 230.213 399.61 233.706ZM396.097 246.819C416.374 252.252 437.216 240.219 442.649 219.942C448.082 199.665 436.049 178.823 415.772 173.389C395.495 167.956 374.653 179.989 369.22 200.266C363.787 220.543 375.82 241.385 396.097 246.819Z" fill="#EB5757"/>
<path fill-rule="evenodd" clip-rule="evenodd" d="M559.862 278.593C560.612 279.892 560.167 281.552 558.868 282.302L551.814 286.374C550.516 287.124 548.855 286.679 548.106 285.381L529.374 252.936L496.929 271.668C495.63 272.418 493.97 271.973 493.22 270.674L489.148 263.62C488.398 262.322 488.843 260.661 490.141 259.912L522.586 241.18L503.978 208.949C503.228 207.651 503.673 205.99 504.972 205.241L512.025 201.168C513.324 200.418 514.984 200.863 515.734 202.162L534.342 234.392L566.573 215.784C567.871 215.034 569.532 215.479 570.282 216.778L574.354 223.831C575.104 225.13 574.659 226.79 573.36 227.54L541.13 246.148L559.862 278.593Z" fill="white"/>
<path fill-rule="evenodd" clip-rule="evenodd" d="M651.367 301.164C664.402 304.657 677.801 296.921 681.294 283.886C684.786 270.851 677.051 257.453 664.016 253.96C650.98 250.467 637.582 258.203 634.089 271.238C630.596 284.273 638.332 297.672 651.367 301.164ZM647.854 314.277C668.131 319.71 688.973 307.677 694.406 287.4C699.839 267.123 687.806 246.281 667.529 240.848C647.252 235.414 626.41 247.448 620.977 267.724C615.544 288.001 627.577 308.844 647.854 314.277Z" fill="#EB5757"/>
<path fill-rule="evenodd" clip-rule="evenodd" d="M741.899 327.37C740.6 328.119 740.155 329.78 740.905 331.078L744.977 338.132C745.727 339.431 747.388 339.876 748.686 339.126L781.131 320.394L799.863 352.839C800.613 354.137 802.273 354.582 803.572 353.832L810.625 349.76C811.924 349.01 812.369 347.35 811.619 346.051L792.887 313.607L825.118 294.998C826.416 294.249 826.861 292.588 826.111 291.29L822.039 284.236C821.289 282.937 819.629 282.492 818.33 283.242L786.1 301.85L767.491 269.62C766.742 268.321 765.081 267.876 763.783 268.626L756.729 272.699C755.43 273.448 754.986 275.109 755.735 276.407L774.343 308.638L741.899 327.37Z" fill="white"/>
<path fill-rule="evenodd" clip-rule="evenodd" d="M-11.7544 258.398C1.28076 261.89 14.6793 254.155 18.172 241.12C21.6648 228.084 13.9292 214.686 0.894001 211.193C-12.1411 207.7 -25.5397 215.436 -29.0324 228.471C-32.5252 241.506 -24.7895 254.905 -11.7544 258.398ZM-15.2678 271.51C5.00906 276.943 25.8512 264.91 31.2844 244.633C36.7176 224.356 24.6843 203.514 4.40744 198.081C-15.8695 192.648 -36.7116 204.681 -42.1448 224.958C-47.5779 245.235 -35.5447 266.077 -15.2678 271.51Z" fill="#EB5757"/>
<path fill-rule="evenodd" clip-rule="evenodd" d="M148.497 303.285C149.247 304.583 148.802 306.244 147.503 306.993L140.45 311.066C139.151 311.815 137.491 311.371 136.741 310.072L118.009 277.627L85.5641 296.359C84.2655 297.109 82.6051 296.664 81.8554 295.365L77.7829 288.312C77.0332 287.013 77.4781 285.353 78.7767 284.603L111.221 265.871L92.6132 233.641C91.8635 232.342 92.3084 230.682 93.6069 229.932L100.661 225.859C101.959 225.11 103.62 225.555 104.369 226.853L122.978 259.084L155.208 240.475C156.507 239.726 158.167 240.171 158.917 241.469L162.989 248.523C163.739 249.821 163.294 251.482 161.995 252.232L129.765 270.84L148.497 303.285Z" fill="white"/>
<path fill-rule="evenodd" clip-rule="evenodd" d="M240.003 325.856C253.038 329.348 266.437 321.613 269.929 308.578C273.422 295.543 265.686 282.144 252.651 278.651C239.616 275.159 226.218 282.894 222.725 295.929C219.232 308.964 226.968 322.363 240.003 325.856ZM236.489 338.968C256.766 344.401 277.609 332.368 283.042 312.091C288.475 291.814 276.442 270.972 256.165 265.539C235.888 260.106 215.046 272.139 209.613 292.416C204.179 312.693 216.213 333.535 236.489 338.968Z" fill="#EB5757"/>
<path fill-rule="evenodd" clip-rule="evenodd" d="M330.534 352.061C329.235 352.811 328.791 354.471 329.54 355.77L333.613 362.824C334.362 364.122 336.023 364.567 337.321 363.817L369.766 345.085L388.498 377.53C389.248 378.829 390.908 379.274 392.207 378.524L399.261 374.451C400.559 373.702 401.004 372.041 400.254 370.743L381.522 338.298L413.753 319.69C415.051 318.94 415.496 317.279 414.747 315.981L410.674 308.927C409.924 307.629 408.264 307.184 406.965 307.933L374.735 326.542L356.127 294.311C355.377 293.013 353.717 292.568 352.418 293.318L345.364 297.39C344.066 298.14 343.621 299.8 344.37 301.099L362.979 333.329L330.534 352.061Z" fill="white"/>
<path fill-rule="evenodd" clip-rule="evenodd" d="M491.76 393.314C504.795 396.807 518.193 389.071 521.686 376.036C525.179 363.001 517.443 349.602 504.408 346.109C491.373 342.617 477.974 350.352 474.482 363.387C470.989 376.423 478.725 389.821 491.76 393.314ZM488.246 406.426C508.523 411.859 529.365 399.826 534.799 379.549C540.232 359.272 528.199 338.43 507.922 332.997C487.645 327.564 466.803 339.597 461.369 359.874C455.936 380.151 467.969 400.993 488.246 406.426Z" fill="#EB5757"/>
<path fill-rule="evenodd" clip-rule="evenodd" d="M582.291 419.519C580.992 420.269 580.547 421.929 581.297 423.228L585.37 430.282C586.119 431.58 587.78 432.025 589.078 431.275L621.523 412.543L640.255 444.988C641.005 446.287 642.665 446.732 643.964 445.982L651.017 441.909C652.316 441.16 652.761 439.499 652.011 438.201L633.279 405.756L665.51 387.148C666.808 386.398 667.253 384.738 666.503 383.439L662.431 376.385C661.681 375.087 660.021 374.642 658.722 375.392L626.492 394L607.884 361.769C607.134 360.471 605.473 360.026 604.175 360.776L597.121 364.848C595.823 365.598 595.378 367.258 596.127 368.557L614.736 400.787L582.291 419.519Z" fill="white"/>
<path fill-rule="evenodd" clip-rule="evenodd" d="M743.517 460.772C756.552 464.265 769.951 456.529 773.444 443.494C776.936 430.459 769.201 417.06 756.165 413.567C743.13 410.075 729.732 417.81 726.239 430.845C722.746 443.881 730.482 457.279 743.517 460.772ZM740.004 473.884C760.281 479.317 781.123 467.284 786.556 447.007C791.989 426.73 779.956 405.888 759.679 400.455C739.402 395.022 718.56 407.055 713.127 427.332C707.694 447.609 719.727 468.451 740.004 473.884Z" fill="#EB5757"/>
<path fill-rule="evenodd" clip-rule="evenodd" d="M-80.8308 376.752C-82.1293 377.502 -82.5742 379.163 -81.8245 380.461L-77.7521 387.515C-77.0023 388.813 -75.3419 389.258 -74.0433 388.509L-41.5986 369.777L-22.8666 402.221C-22.1169 403.52 -20.4564 403.965 -19.1578 403.215L-12.1041 399.143C-10.8056 398.393 -10.3606 396.733 -11.1104 395.434L-29.8424 362.989L2.38806 344.381C3.68661 343.631 4.13153 341.971 3.3818 340.672L-0.690664 333.619C-1.44038 332.32 -3.10084 331.875 -4.39939 332.625L-36.6298 351.233L-55.238 319.003C-55.9878 317.704 -57.6482 317.259 -58.9468 318.009L-66.0005 322.081C-67.299 322.831 -67.744 324.492 -66.9942 325.79L-48.386 358.02L-80.8308 376.752Z" fill="white"/>
<path fill-rule="evenodd" clip-rule="evenodd" d="M80.395 418.005C93.4302 421.498 106.829 413.762 110.321 400.727C113.814 387.692 106.079 374.293 93.0434 370.801C80.0083 367.308 66.6098 375.044 63.117 388.079C59.6242 401.114 67.3599 414.512 80.395 418.005ZM76.8816 431.118C97.1585 436.551 118.001 424.517 123.434 404.241C128.867 383.964 116.834 363.122 96.5569 357.688C76.28 352.255 55.4378 364.288 50.0046 384.565C44.5715 404.842 56.6047 425.684 76.8816 431.118Z" fill="#EB5757"/>
<path fill-rule="evenodd" clip-rule="evenodd" d="M170.927 444.211C169.628 444.96 169.183 446.621 169.933 447.919L174.005 454.973C174.755 456.272 176.415 456.717 177.714 455.967L210.159 437.235L228.891 469.68C229.64 470.978 231.301 471.423 232.599 470.673L239.653 466.601C240.952 465.851 241.397 464.191 240.647 462.892L221.915 430.447L254.145 411.839C255.444 411.089 255.889 409.429 255.139 408.13L251.067 401.077C250.317 399.778 248.656 399.333 247.358 400.083L215.128 418.691L196.519 386.461C195.77 385.162 194.109 384.717 192.811 385.467L185.757 389.539C184.458 390.289 184.013 391.95 184.763 393.248L203.371 425.479L170.927 444.211Z" fill="white"/>
<path fill-rule="evenodd" clip-rule="evenodd" d="M332.152 485.463C345.187 488.956 358.586 481.22 362.079 468.185C365.572 455.15 357.836 441.752 344.801 438.259C331.766 434.766 318.367 442.502 314.874 455.537C311.382 468.572 319.117 481.971 332.152 485.463ZM328.639 498.576C348.916 504.009 369.758 491.976 375.191 471.699C380.624 451.422 368.591 430.58 348.314 425.146C328.037 419.713 307.195 431.747 301.762 452.023C296.329 472.3 308.362 493.142 328.639 498.576Z" fill="#EB5757"/>
<path fill-rule="evenodd" clip-rule="evenodd" d="M422.683 511.669C421.385 512.418 420.94 514.079 421.69 515.377L425.762 522.431C426.512 523.73 428.172 524.175 429.471 523.425L461.916 504.693L480.648 537.138C481.397 538.436 483.058 538.881 484.356 538.131L491.41 534.059C492.709 533.309 493.154 531.649 492.404 530.35L473.672 497.905L505.902 479.297C507.201 478.547 507.646 476.887 506.896 475.588L502.823 468.535C502.074 467.236 500.413 466.791 499.115 467.541L466.884 486.149L448.276 453.919C447.526 452.62 445.866 452.175 444.567 452.925L437.514 456.998C436.215 457.747 435.77 459.408 436.52 460.706L455.128 492.937L422.683 511.669Z" fill="white"/>
<path fill-rule="evenodd" clip-rule="evenodd" d="M583.909 552.921C596.944 556.414 610.343 548.678 613.836 535.643C617.328 522.608 609.593 509.21 596.558 505.717C583.522 502.224 570.124 509.96 566.631 522.995C563.138 536.03 570.874 549.429 583.909 552.921ZM580.396 566.034C600.673 571.467 621.515 559.434 626.948 539.157C632.381 518.88 620.348 498.038 600.071 492.605C579.794 487.171 558.952 499.205 553.519 519.482C548.086 539.758 560.119 560.601 580.396 566.034Z" fill="#EB5757"/>
<path fill-rule="evenodd" clip-rule="evenodd" d="M674.441 579.127C673.142 579.876 672.697 581.537 673.447 582.835L677.519 589.889C678.269 591.188 679.93 591.633 681.228 590.883L713.673 572.151L732.405 604.596C733.155 605.894 734.815 606.339 736.114 605.589L743.167 601.517C744.466 600.767 744.911 599.107 744.161 597.808L725.429 565.364L757.66 546.755C758.958 546.006 759.403 544.345 758.653 543.047L754.581 535.993C753.831 534.694 752.171 534.249 750.872 534.999L718.642 553.607L700.033 521.377C699.284 520.078 697.623 519.633 696.325 520.383L689.271 524.456C687.972 525.205 687.528 526.866 688.277 528.164L706.885 560.395L674.441 579.127Z" fill="white"/>
<path fill-rule="evenodd" clip-rule="evenodd" d="M835.667 620.379C848.702 623.872 862.1 616.137 865.593 603.101C869.086 590.066 861.35 576.668 848.315 573.175C835.28 569.682 821.881 577.418 818.388 590.453C814.896 603.488 822.631 616.887 835.667 620.379ZM832.153 633.492C852.43 638.925 873.272 626.892 878.705 606.615C884.138 586.338 872.105 565.496 851.828 560.063C831.551 554.63 810.709 566.663 805.276 586.94C799.843 607.217 811.876 628.059 832.153 633.492Z" fill="#EB5757"/>
<path fill-rule="evenodd" clip-rule="evenodd" d="M11.3186 536.36C10.0201 537.11 9.57517 538.77 10.3249 540.069L14.3974 547.122C15.1471 548.421 16.8075 548.866 18.1061 548.116L50.5509 529.384L69.2828 561.829C70.0326 563.128 71.693 563.572 72.9916 562.823L80.0453 558.75C81.3439 558.001 81.7888 556.34 81.039 555.042L62.3071 522.597L94.5375 503.989C95.836 503.239 96.2809 501.578 95.5312 500.28L91.4588 493.226C90.709 491.928 89.0486 491.483 87.75 492.232L55.5196 510.841L36.9114 478.61C36.1617 477.312 34.5012 476.867 33.2026 477.616L26.1489 481.689C24.8504 482.439 24.4054 484.099 25.1552 485.398L43.7634 517.628L11.3186 536.36Z" fill="white"/>
<path fill-rule="evenodd" clip-rule="evenodd" d="M172.544 577.613C185.58 581.106 198.978 573.37 202.471 560.335C205.964 547.3 198.228 533.901 185.193 530.408C172.158 526.916 158.759 534.651 155.266 547.686C151.774 560.721 159.509 574.12 172.544 577.613ZM169.031 590.725C189.308 596.158 210.15 584.125 215.583 563.848C221.016 543.571 208.983 522.729 188.706 517.296C168.429 511.863 147.587 523.896 142.154 544.173C136.721 564.45 148.754 585.292 169.031 590.725Z" fill="#EB5757"/>
<path fill-rule="evenodd" clip-rule="evenodd" d="M332.796 622.5C333.546 623.798 333.101 625.459 331.802 626.208L324.748 630.281C323.45 631.031 321.789 630.586 321.04 629.287L302.308 596.842L269.863 615.574C268.564 616.324 266.904 615.879 266.154 614.581L262.082 607.527C261.332 606.228 261.777 604.568 263.075 603.818L295.52 585.086L276.912 552.856C276.162 551.557 276.607 549.897 277.906 549.147L284.959 545.075C286.258 544.325 287.918 544.77 288.668 546.068L307.276 578.299L339.507 559.69C340.805 558.941 342.466 559.386 343.216 560.684L347.288 567.738C348.038 569.036 347.593 570.697 346.294 571.447L314.064 590.055L332.796 622.5Z" fill="white"/>
<path fill-rule="evenodd" clip-rule="evenodd" d="M424.302 645.071C437.337 648.564 450.735 640.828 454.228 627.793C457.721 614.758 449.985 601.359 436.95 597.866C423.915 594.374 410.516 602.109 407.024 615.144C403.531 628.18 411.267 641.578 424.302 645.071ZM420.788 658.183C441.065 663.616 461.907 651.583 467.341 631.306C472.774 611.029 460.74 590.187 440.464 584.754C420.187 579.321 399.345 591.354 393.911 611.631C388.478 631.908 400.511 652.75 420.788 658.183Z" fill="#EB5757"/>
<path fill-rule="evenodd" clip-rule="evenodd" d="M584.553 689.958C585.303 691.256 584.858 692.917 583.559 693.666L576.506 697.739C575.207 698.489 573.547 698.044 572.797 696.745L554.065 664.3L521.62 683.032C520.322 683.782 518.661 683.337 517.912 682.039L513.839 674.985C513.089 673.686 513.534 672.026 514.833 671.276L547.278 652.544L528.669 620.314C527.92 619.015 528.365 617.355 529.663 616.605L536.717 612.533C538.015 611.783 539.676 612.228 540.426 613.526L559.034 645.757L591.264 627.149C592.563 626.399 594.223 626.844 594.973 628.142L599.045 635.196C599.795 636.495 599.35 638.155 598.052 638.905L565.821 657.513L584.553 689.958Z" fill="white"/>
<path fill-rule="evenodd" clip-rule="evenodd" d="M676.059 712.529C689.094 716.022 702.492 708.286 705.985 695.251C709.478 682.216 701.742 668.817 688.707 665.324C675.672 661.832 662.273 669.567 658.781 682.603C655.288 695.638 663.023 709.036 676.059 712.529ZM672.545 725.641C692.822 731.074 713.664 719.041 719.097 698.764C724.531 678.487 712.497 657.645 692.22 652.212C671.944 646.779 651.101 658.812 645.668 679.089C640.235 699.366 652.268 720.208 672.545 725.641Z" fill="#EB5757"/>
<path fill-rule="evenodd" clip-rule="evenodd" d="M836.31 757.416C837.06 758.714 836.615 760.375 835.316 761.125L828.263 765.197C826.964 765.947 825.304 765.502 824.554 764.203L805.822 731.759L773.377 750.491C772.079 751.24 770.418 750.795 769.668 749.497L765.596 742.443C764.846 741.145 765.291 739.484 766.59 738.734L799.034 720.002L780.426 687.772C779.676 686.473 780.121 684.813 781.42 684.063L788.474 679.991C789.772 679.241 791.433 679.686 792.182 680.984L810.791 713.215L843.021 694.607C844.32 693.857 845.98 694.302 846.73 695.6L850.802 702.654C851.552 703.953 851.107 705.613 849.808 706.363L817.578 724.971L836.31 757.416Z" fill="white"/>
<path fill-rule="evenodd" clip-rule="evenodd" d="M12.937 669.762C25.9722 673.255 39.3707 665.519 42.8634 652.484C46.3562 639.449 38.6206 626.051 25.5854 622.558C12.5503 619.065 -0.848257 626.801 -4.34102 639.836C-7.83377 652.871 -0.0981364 666.269 12.937 669.762ZM9.42357 682.875C29.7005 688.308 50.5426 676.275 55.9758 655.998C61.409 635.721 49.3758 614.879 29.0989 609.445C8.82195 604.012 -12.0202 616.045 -17.4534 636.322C-22.8865 656.599 -10.8533 677.441 9.42357 682.875Z" fill="#EB5757"/>
<path fill-rule="evenodd" clip-rule="evenodd" d="M173.188 714.649C173.938 715.948 173.493 717.608 172.195 718.358L165.141 722.43C163.842 723.18 162.182 722.735 161.432 721.437L142.7 688.992L110.256 707.724C108.957 708.474 107.296 708.029 106.547 706.73L102.474 699.676C101.725 698.378 102.17 696.717 103.468 695.968L135.913 677.236L117.305 645.005C116.555 643.707 117 642.046 118.298 641.296L125.352 637.224C126.651 636.474 128.311 636.919 129.061 638.218L147.669 670.448L179.899 651.84C181.198 651.09 182.858 651.535 183.608 652.834L187.681 659.887C188.43 661.186 187.985 662.846 186.687 663.596L154.456 682.204L173.188 714.649Z" fill="white"/>
<path fill-rule="evenodd" clip-rule="evenodd" d="M264.694 737.22C277.729 740.713 291.128 732.977 294.62 719.942C298.113 706.907 290.377 693.509 277.342 690.016C264.307 686.523 250.909 694.259 247.416 707.294C243.923 720.329 251.659 733.728 264.694 737.22ZM261.18 750.333C281.457 755.766 302.299 743.733 307.733 723.456C313.166 703.179 301.133 682.337 280.856 676.904C260.579 671.47 239.737 683.504 234.303 703.78C228.87 724.057 240.904 744.899 261.18 750.333Z" fill="#EB5757"/>
<path fill-rule="evenodd" clip-rule="evenodd" d="M355.225 763.426C353.927 764.175 353.482 765.836 354.232 767.134L358.304 774.188C359.054 775.487 360.714 775.932 362.013 775.182L394.458 756.45L413.19 788.895C413.939 790.193 415.6 790.638 416.898 789.888L423.952 785.816C425.251 785.066 425.696 783.406 424.946 782.107L406.214 749.662L438.444 731.054C439.743 730.305 440.188 728.644 439.438 727.346L435.365 720.292C434.616 718.993 432.955 718.548 431.657 719.298L399.426 737.906L380.818 705.676C380.068 704.377 378.408 703.932 377.109 704.682L370.056 708.755C368.757 709.504 368.312 711.165 369.062 712.463L387.67 744.694L355.225 763.426Z" fill="white"/>
<path fill-rule="evenodd" clip-rule="evenodd" d="M516.451 804.678C529.486 808.171 542.885 800.436 546.378 787.4C549.87 774.365 542.135 760.967 529.1 757.474C516.064 753.981 502.666 761.717 499.173 774.752C495.68 787.787 503.416 801.186 516.451 804.678ZM512.938 817.791C533.215 823.224 554.057 811.191 559.49 790.914C564.923 770.637 552.89 749.795 532.613 744.362C512.336 738.928 491.494 750.962 486.061 771.239C480.628 791.515 492.661 812.358 512.938 817.791Z" fill="#EB5757"/>
<path fill-rule="evenodd" clip-rule="evenodd" d="M606.982 830.884C605.684 831.634 605.239 833.294 605.988 834.593L610.061 841.646C610.811 842.945 612.471 843.39 613.77 842.64L646.214 823.908L664.946 856.353C665.696 857.651 667.357 858.096 668.655 857.347L675.709 853.274C677.007 852.524 677.452 850.864 676.703 849.565L657.971 817.121L690.201 798.512C691.5 797.763 691.945 796.102 691.195 794.804L687.122 787.75C686.373 786.451 684.712 786.006 683.414 786.756L651.183 805.364L632.575 773.134C631.825 771.835 630.165 771.39 628.866 772.14L621.812 776.213C620.514 776.962 620.069 778.623 620.819 779.921L639.427 812.152L606.982 830.884Z" fill="white"/>
<path fill-rule="evenodd" clip-rule="evenodd" d="M768.208 872.137C781.243 875.629 794.642 867.894 798.134 854.858C801.627 841.823 793.892 828.425 780.856 824.932C767.821 821.439 754.423 829.175 750.93 842.21C747.437 855.245 755.173 868.644 768.208 872.137ZM764.695 885.249C784.971 890.682 805.814 878.649 811.247 858.372C816.68 838.095 804.647 817.253 784.37 811.82C764.093 806.387 743.251 818.42 737.818 838.697C732.384 858.974 744.418 879.816 764.695 885.249Z" fill="#EB5757"/>
<path fill-rule="evenodd" clip-rule="evenodd" d="M-56.1399 788.117C-57.4384 788.867 -57.8833 790.527 -57.1336 791.826L-53.0611 798.88C-52.3114 800.178 -50.651 800.623 -49.3524 799.873L-16.9076 781.141L1.82434 813.586C2.57407 814.885 4.23453 815.33 5.53308 814.58L12.5868 810.507C13.8854 809.758 14.3303 808.097 13.5806 806.799L-5.15144 774.354L27.079 755.746C28.3775 754.996 28.8224 753.336 28.0727 752.037L24.0003 744.983C23.2505 743.685 21.5901 743.24 20.2915 743.989L-11.9389 762.598L-30.5471 730.367C-31.2968 729.069 -32.9573 728.624 -34.2559 729.374L-41.3096 733.446C-42.6081 734.196 -43.0531 735.856 -42.3033 737.155L-23.6951 769.385L-56.1399 788.117Z" fill="white"/>
<path fill-rule="evenodd" clip-rule="evenodd" d="M105.086 829.37C118.122 832.863 131.52 825.127 135.013 812.092C138.506 799.057 130.77 785.658 117.735 782.165C104.7 778.673 91.3012 786.408 87.8084 799.443C84.3156 812.479 92.0513 825.877 105.086 829.37ZM101.573 842.482C121.85 847.915 142.692 835.882 148.125 815.605C153.558 795.328 141.525 774.486 121.248 769.053C100.971 763.62 80.1292 775.653 74.6961 795.93C69.2629 816.207 81.2961 837.049 101.573 842.482Z" fill="#EB5757"/>
<path fill-rule="evenodd" clip-rule="evenodd" d="M195.617 855.575C194.319 856.325 193.874 857.985 194.624 859.284L198.696 866.338C199.446 867.636 201.106 868.081 202.405 867.331L234.85 848.599L253.582 881.044C254.331 882.343 255.992 882.788 257.29 882.038L264.344 877.966C265.643 877.216 266.088 875.555 265.338 874.257L246.606 841.812L278.836 823.204C280.135 822.454 280.58 820.794 279.83 819.495L275.758 812.441C275.008 811.143 273.347 810.698 272.049 811.448L239.818 830.056L221.21 797.825C220.46 796.527 218.8 796.082 217.501 796.832L210.448 800.904C209.149 801.654 208.704 803.314 209.454 804.613L228.062 836.843L195.617 855.575Z" fill="white"/>
<path fill-rule="evenodd" clip-rule="evenodd" d="M356.843 896.828C369.878 900.321 383.277 892.585 386.77 879.55C390.262 866.515 382.527 853.116 369.492 849.623C356.457 846.131 343.058 853.866 339.565 866.902C336.072 879.937 343.808 893.335 356.843 896.828ZM353.33 909.94C373.607 915.373 394.449 903.34 399.882 883.063C405.315 862.786 393.282 841.944 373.005 836.511C352.728 831.078 331.886 843.111 326.453 863.388C321.02 883.665 333.053 904.507 353.33 909.94Z" fill="#EB5757"/>
<path fill-rule="evenodd" clip-rule="evenodd" d="M447.374 923.033C446.076 923.783 445.631 925.443 446.381 926.742L450.453 933.796C451.203 935.094 452.863 935.539 454.162 934.79L486.607 916.058L505.339 948.502C506.088 949.801 507.749 950.246 509.047 949.496L516.101 945.424C517.4 944.674 517.844 943.013 517.095 941.715L498.363 909.27L530.593 890.662C531.892 889.912 532.337 888.252 531.587 886.953L527.514 879.899C526.765 878.601 525.104 878.156 523.806 878.906L491.575 897.514L472.967 865.283C472.217 863.985 470.557 863.54 469.258 864.29L462.205 868.362C460.906 869.112 460.461 870.772 461.211 872.071L479.819 904.301L447.374 923.033Z" fill="white"/>
<path fill-rule="evenodd" clip-rule="evenodd" d="M608.601 964.286C621.636 967.779 635.034 960.043 638.527 947.008C642.02 933.973 634.284 920.574 621.249 917.082C608.214 913.589 594.815 921.324 591.323 934.36C587.83 947.395 595.565 960.793 608.601 964.286ZM605.087 977.398C625.364 982.832 646.206 970.798 651.639 950.521C657.073 930.245 645.039 909.402 624.762 903.969C604.486 898.536 583.643 910.569 578.21 930.846C572.777 951.123 584.81 971.965 605.087 977.398Z" fill="#EB5757"/>
<path fill-rule="evenodd" clip-rule="evenodd" d="M36.0101 947.725C34.7115 948.475 34.2666 950.135 35.0163 951.434L39.0888 958.487C39.8385 959.786 41.4989 960.231 42.7975 959.481L75.2423 940.749L93.9742 973.194C94.724 974.492 96.3844 974.937 97.683 974.188L104.737 970.115C106.035 969.365 106.48 967.705 105.73 966.406L86.9985 933.962L119.229 915.353C120.527 914.604 120.972 912.943 120.223 911.645L116.15 904.591C115.4 903.292 113.74 902.847 112.441 903.597L80.211 922.205L61.6028 889.975C60.8531 888.676 59.1926 888.231 57.894 888.981L50.8403 893.054C49.5418 893.803 49.0969 895.464 49.8466 896.762L68.4548 928.993L36.0101 947.725Z" fill="white"/>
</g>
<defs>
<clipPath id="clip0_334_5712">
<rect width="806" height="900" fill="white"/>
</clipPath>
</defs>
</svg>
