<svg width="806" height="900" viewBox="0 0 806 900" fill="none" xmlns="http://www.w3.org/2000/svg">
<g clip-path="url(#clip0_626_7541)">
<rect width="806" height="900" fill="white"/>
<path fill-rule="evenodd" clip-rule="evenodd" d="M467.067 -18.0509C480.103 -14.5581 493.501 -22.2938 496.994 -35.3289C500.487 -48.3641 492.751 -61.7626 479.716 -65.2553C466.681 -68.7481 453.282 -61.0125 449.789 -47.9773C446.297 -34.9422 454.032 -21.5436 467.067 -18.0509ZM463.554 -4.93854C483.831 0.494643 504.673 -11.5386 510.106 -31.8155C515.539 -52.0924 503.506 -72.9345 483.229 -78.3677C462.952 -83.8009 442.11 -71.7676 436.677 -51.4907C431.244 -31.2138 443.277 -10.3717 463.554 -4.93854Z" fill="#EB5757"/>
<path fill-rule="evenodd" clip-rule="evenodd" d="M557.6 8.15444C556.301 8.90416 555.856 10.5646 556.606 11.8632L560.679 18.9169C561.428 20.2154 563.089 20.6604 564.387 19.9106L596.832 1.17877L615.564 33.6234C616.314 34.9219 617.974 35.3669 619.273 34.6171L626.326 30.5447C627.625 29.7949 628.07 28.1345 627.32 26.8359L608.588 -5.60868L640.819 -24.217C642.117 -24.9667 642.562 -26.6272 641.812 -27.9258L637.74 -34.9795C636.99 -36.278 635.33 -36.723 634.031 -35.9732L601.801 -17.3649L583.192 -49.5954C582.443 -50.894 580.782 -51.3389 579.484 -50.5892L572.43 -46.5167C571.131 -45.767 570.686 -44.1065 571.436 -42.808L590.044 -10.5774L557.6 8.15444Z" fill="black"/>
<path fill-rule="evenodd" clip-rule="evenodd" d="M718.825 49.4071C731.86 52.8999 745.259 45.1642 748.752 32.1291C752.244 19.0939 744.509 5.69543 731.474 2.20267C718.438 -1.29008 705.04 6.44555 701.547 19.4807C698.054 32.5159 705.79 45.9144 718.825 49.4071ZM715.312 62.5195C735.589 67.9527 756.431 55.9194 761.864 35.6425C767.297 15.3656 755.264 -5.4765 734.987 -10.9097C714.71 -16.3429 693.868 -4.30964 688.435 15.9673C683.002 36.2442 695.035 57.0863 715.312 62.5195Z" fill="#EB5757"/>
<path fill-rule="evenodd" clip-rule="evenodd" d="M809.357 75.6126C808.058 76.3623 807.613 78.0227 808.363 79.3213L812.435 86.375C813.185 87.6736 814.846 88.1185 816.144 87.3688L848.589 68.6369L867.321 101.082C868.07 102.38 869.731 102.825 871.029 102.075L878.083 98.0028C879.382 97.2531 879.827 95.5926 879.077 94.2941L860.345 61.8494L892.576 43.2411C893.874 42.4914 894.319 40.8309 893.569 39.5324L889.497 32.4786C888.747 31.1801 887.087 30.7352 885.788 31.4849L853.558 50.0932L834.949 17.8627C834.199 16.5641 832.539 16.1192 831.24 16.8689L824.187 20.9414C822.888 21.6911 822.443 23.3516 823.193 24.6501L841.801 56.8807L809.357 75.6126Z" fill="black"/>
<path fill-rule="evenodd" clip-rule="evenodd" d="M55.7041 6.64052C68.7393 10.1333 82.1378 2.39764 85.6305 -10.6375C89.1233 -23.6727 81.3876 -37.0712 68.3525 -40.5639C55.3173 -44.0567 41.9188 -36.321 38.4261 -23.2859C34.9333 -10.2508 42.669 3.14777 55.7041 6.64052ZM52.1907 19.7529C72.4676 25.186 93.3097 13.1528 98.7429 -7.12406C104.176 -27.401 92.1428 -48.2431 71.8659 -53.6763C51.589 -59.1095 30.7469 -47.0762 25.3137 -26.7993C19.8805 -6.52244 31.9138 14.3197 52.1907 19.7529Z" fill="#EB5757"/>
<path fill-rule="evenodd" clip-rule="evenodd" d="M146.236 32.846C144.937 33.5957 144.492 35.2561 145.242 36.5547L149.314 43.6084C150.064 44.907 151.725 45.3519 153.023 44.6022L185.468 25.8703L204.2 58.3149C204.949 59.6135 206.61 60.0584 207.908 59.3087L214.962 55.2362C216.261 54.4865 216.706 52.826 215.956 51.5275L197.224 19.0828L229.454 0.474505C230.753 -0.275217 231.198 -1.93567 230.448 -3.23423L226.376 -10.288C225.626 -11.5865 223.966 -12.0314 222.667 -11.2817L190.436 7.32664L171.828 -24.9039C171.078 -26.2025 169.418 -26.6474 168.119 -25.8977L161.066 -21.8252C159.767 -21.0755 159.322 -19.415 160.072 -18.1165L178.68 14.1141L146.236 32.846Z" fill="black"/>
<path fill-rule="evenodd" clip-rule="evenodd" d="M307.461 74.0987C320.496 77.5914 333.895 69.8558 337.387 56.8206C340.88 43.7855 333.144 30.387 320.109 26.8942C307.074 23.4014 293.676 31.1371 290.183 44.1722C286.69 57.2074 294.426 70.6059 307.461 74.0987ZM303.947 87.211C324.224 92.6442 345.067 80.611 350.5 60.3341C355.933 40.0572 343.9 19.215 323.623 13.7819C303.346 8.34868 282.504 20.3819 277.071 40.6588C271.637 60.9357 283.671 81.7778 303.947 87.211Z" fill="#EB5757"/>
<path fill-rule="evenodd" clip-rule="evenodd" d="M397.992 100.304C396.694 101.054 396.249 102.714 396.999 104.013L401.071 111.067C401.821 112.365 403.481 112.81 404.78 112.06L437.224 93.3284L455.956 125.773C456.706 127.072 458.367 127.517 459.665 126.767L466.719 122.694C468.017 121.945 468.462 120.284 467.713 118.986L448.981 86.541L481.211 67.9326C482.51 67.1829 482.955 65.5225 482.205 64.2239L478.133 57.1702C477.383 55.8716 475.722 55.4267 474.424 56.1764L442.193 74.7848L423.585 42.5542C422.835 41.2557 421.175 40.8108 419.876 41.5605L412.822 45.6329C411.524 46.3827 411.079 48.0431 411.829 49.3417L430.437 81.5722L397.992 100.304Z" fill="black"/>
<path fill-rule="evenodd" clip-rule="evenodd" d="M559.218 141.557C572.253 145.05 585.651 137.314 589.144 124.279C592.637 111.244 584.901 97.8451 571.866 94.3523C558.831 90.8596 545.433 98.5952 541.94 111.63C538.447 124.666 546.183 138.064 559.218 141.557ZM555.704 154.669C575.981 160.102 596.823 148.069 602.257 127.792C607.69 107.515 595.657 86.6732 575.38 81.24C555.103 75.8068 534.261 87.84 528.827 108.117C523.394 128.394 535.427 149.236 555.704 154.669Z" fill="#EB5757"/>
<path fill-rule="evenodd" clip-rule="evenodd" d="M649.75 167.762C648.452 168.512 648.007 170.172 648.757 171.471L652.829 178.525C653.579 179.823 655.239 180.268 656.538 179.518L688.982 160.786L707.714 193.231C708.464 194.53 710.124 194.975 711.423 194.225L718.477 190.152C719.775 189.403 720.22 187.742 719.47 186.444L700.739 153.999L732.969 135.391C734.268 134.641 734.713 132.98 733.963 131.682L729.89 124.628C729.141 123.33 727.48 122.885 726.182 123.634L693.951 142.243L675.343 110.012C674.593 108.714 672.933 108.269 671.634 109.018L664.58 113.091C663.282 113.841 662.837 115.501 663.587 116.8L682.195 149.03L649.75 167.762Z" fill="black"/>
<path fill-rule="evenodd" clip-rule="evenodd" d="M810.975 209.015C824.01 212.508 837.408 204.772 840.901 191.737C844.394 178.702 836.658 165.303 823.623 161.81C810.588 158.318 797.189 166.053 793.697 179.088C790.204 192.124 797.939 205.522 810.975 209.015ZM807.461 222.127C827.738 227.56 848.58 215.527 854.013 195.25C859.447 174.973 847.413 154.131 827.136 148.698C806.86 143.265 786.017 155.298 780.584 175.575C775.151 195.852 787.184 216.694 807.461 222.127Z" fill="#EB5757"/>
<path fill-rule="evenodd" clip-rule="evenodd" d="M-13.3718 124.995C-14.6703 125.745 -15.1153 127.406 -14.3655 128.704L-10.2931 135.758C-9.54335 137.056 -7.88289 137.501 -6.58433 136.752L25.8602 118.02L44.5921 150.464C45.3419 151.763 47.0023 152.208 48.3009 151.458L55.3546 147.386C56.6532 146.636 57.0981 144.975 56.3484 143.677L37.6164 111.232L69.847 92.6239C71.1456 91.8742 71.5905 90.2137 70.8408 88.9152L66.7683 81.8615C66.0186 80.5629 64.3581 80.118 63.0596 80.8677L30.829 99.4761L12.2207 67.2455C11.471 65.947 9.81051 65.502 8.51195 66.2518L1.45823 70.3242C0.159673 71.0739 -0.285245 72.7344 0.464476 74.033L19.0728 106.264L-13.3718 124.995Z" fill="black"/>
<path fill-rule="evenodd" clip-rule="evenodd" d="M147.853 166.248C160.888 169.741 174.286 162.005 177.779 148.97C181.272 135.935 173.536 122.536 160.501 119.044C147.466 115.551 134.067 123.287 130.575 136.322C127.082 149.357 134.817 162.755 147.853 166.248ZM144.339 179.361C164.616 184.794 185.458 172.761 190.891 152.484C196.324 132.207 184.291 111.365 164.014 105.931C143.737 100.498 122.895 112.531 117.462 132.808C112.029 153.085 124.062 173.927 144.339 179.361Z" fill="#EB5757"/>
<path fill-rule="evenodd" clip-rule="evenodd" d="M238.385 192.454C237.086 193.203 236.642 194.864 237.391 196.162L241.464 203.216C242.213 204.515 243.874 204.959 245.173 204.21L277.617 185.478L296.349 217.922C297.099 219.221 298.759 219.666 300.058 218.916L307.111 214.844C308.41 214.094 308.855 212.434 308.105 211.135L289.373 178.69L321.604 160.082C322.902 159.332 323.347 157.672 322.598 156.373L318.525 149.32C317.775 148.021 316.115 147.576 314.816 148.326L282.586 166.934L263.978 134.704C263.228 133.405 261.567 132.96 260.269 133.71L253.215 137.782C251.917 138.532 251.472 140.193 252.221 141.491L270.83 173.722L238.385 192.454Z" fill="black"/>
<path fill-rule="evenodd" clip-rule="evenodd" d="M399.609 233.706C412.645 237.199 426.043 229.463 429.536 216.428C433.029 203.393 425.293 189.995 412.258 186.502C399.223 183.009 385.824 190.745 382.331 203.78C378.839 216.815 386.574 230.214 399.609 233.706ZM396.096 246.819C416.373 252.252 437.215 240.219 442.648 219.942C448.081 199.665 436.048 178.823 415.771 173.39C395.494 167.956 374.652 179.99 369.219 200.266C363.786 220.543 375.819 241.385 396.096 246.819Z" fill="#EB5757"/>
<path fill-rule="evenodd" clip-rule="evenodd" d="M490.142 259.912C488.843 260.661 488.398 262.322 489.148 263.62L493.221 270.674C493.97 271.973 495.631 272.418 496.929 271.668L529.374 252.936L548.106 285.381C548.856 286.679 550.516 287.124 551.815 286.374L558.868 282.302C560.167 281.552 560.612 279.892 559.862 278.593L541.13 246.149L573.361 227.54C574.659 226.79 575.104 225.13 574.354 223.831L570.282 216.778C569.532 215.479 567.872 215.034 566.573 215.784L534.343 234.392L515.734 202.162C514.985 200.863 513.324 200.418 512.026 201.168L504.972 205.24C503.673 205.99 503.228 207.651 503.978 208.949L522.586 241.18L490.142 259.912Z" fill="black"/>
<path fill-rule="evenodd" clip-rule="evenodd" d="M651.367 301.164C664.402 304.657 677.801 296.921 681.294 283.886C684.786 270.851 677.051 257.453 664.016 253.96C650.98 250.467 637.582 258.203 634.089 271.238C630.596 284.273 638.332 297.672 651.367 301.164ZM647.854 314.277C668.131 319.71 688.973 307.677 694.406 287.4C699.839 267.123 687.806 246.281 667.529 240.848C647.252 235.414 626.41 247.448 620.977 267.724C615.544 288.001 627.577 308.843 647.854 314.277Z" fill="#EB5757"/>
<path fill-rule="evenodd" clip-rule="evenodd" d="M741.899 327.37C740.6 328.119 740.155 329.78 740.905 331.079L744.977 338.132C745.727 339.431 747.388 339.876 748.686 339.126L781.131 320.394L799.863 352.839C800.612 354.137 802.273 354.582 803.571 353.832L810.625 349.76C811.924 349.01 812.369 347.35 811.619 346.051L792.887 313.607L825.118 294.998C826.416 294.249 826.861 292.588 826.111 291.29L822.039 284.236C821.289 282.937 819.629 282.492 818.33 283.242L786.1 301.85L767.491 269.62C766.741 268.321 765.081 267.876 763.782 268.626L756.729 272.699C755.43 273.448 754.985 275.109 755.735 276.407L774.343 308.638L741.899 327.37Z" fill="black"/>
<path fill-rule="evenodd" clip-rule="evenodd" d="M-11.7539 258.398C1.28124 261.89 14.6798 254.155 18.1725 241.12C21.6653 228.084 13.9296 214.686 0.894489 211.193C-12.1407 207.7 -25.5392 215.436 -29.0319 228.471C-32.5247 241.506 -24.7891 254.905 -11.7539 258.398ZM-15.2673 271.51C5.00955 276.943 25.8517 264.91 31.2849 244.633C36.718 224.356 24.6848 203.514 4.40793 198.081C-15.869 192.648 -36.7111 204.681 -42.1443 224.958C-47.5775 245.235 -35.5442 266.077 -15.2673 271.51Z" fill="#EB5757"/>
<path fill-rule="evenodd" clip-rule="evenodd" d="M78.7776 284.603C77.4791 285.353 77.0342 287.013 77.7839 288.312L81.8563 295.366C82.6061 296.664 84.2665 297.109 85.5651 296.359L118.01 277.627L136.742 310.072C137.491 311.371 139.152 311.815 140.45 311.066L147.504 306.993C148.803 306.244 149.247 304.583 148.498 303.285L129.766 270.84L161.996 252.232C163.295 251.482 163.74 249.821 162.99 248.523L158.918 241.469C158.168 240.171 156.508 239.726 155.209 240.475L122.978 259.084L104.37 226.853C103.62 225.555 101.96 225.11 100.661 225.859L93.6076 229.932C92.3091 230.682 91.8642 232.342 92.6139 233.641L111.222 265.871L78.7776 284.603Z" fill="black"/>
<path fill-rule="evenodd" clip-rule="evenodd" d="M240.003 325.856C253.038 329.348 266.437 321.613 269.929 308.578C273.422 295.543 265.686 282.144 252.651 278.651C239.616 275.159 226.218 282.894 222.725 295.929C219.232 308.964 226.968 322.363 240.003 325.856ZM236.489 338.968C256.766 344.401 277.609 332.368 283.042 312.091C288.475 291.814 276.442 270.972 256.165 265.539C235.888 260.106 215.046 272.139 209.613 292.416C204.179 312.693 216.213 333.535 236.489 338.968Z" fill="#EB5757"/>
<path fill-rule="evenodd" clip-rule="evenodd" d="M330.534 352.061C329.236 352.811 328.791 354.471 329.541 355.77L333.613 362.824C334.363 364.122 336.023 364.567 337.322 363.817L369.766 345.086L388.498 377.53C389.248 378.829 390.909 379.274 392.207 378.524L399.261 374.451C400.559 373.702 401.004 372.041 400.255 370.743L381.523 338.298L413.753 319.69C415.052 318.94 415.497 317.28 414.747 315.981L410.675 308.927C409.925 307.629 408.264 307.184 406.966 307.934L374.735 326.542L356.127 294.311C355.377 293.013 353.717 292.568 352.418 293.318L345.364 297.39C344.066 298.14 343.621 299.8 344.371 301.099L362.979 333.329L330.534 352.061Z" fill="black"/>
<path fill-rule="evenodd" clip-rule="evenodd" d="M491.76 393.314C504.795 396.807 518.193 389.071 521.686 376.036C525.179 363.001 517.443 349.602 504.408 346.109C491.373 342.617 477.974 350.352 474.482 363.387C470.989 376.423 478.725 389.821 491.76 393.314ZM488.246 406.426C508.523 411.859 529.365 399.826 534.799 379.549C540.232 359.272 528.199 338.43 507.922 332.997C487.645 327.564 466.803 339.597 461.369 359.874C455.936 380.151 467.969 400.993 488.246 406.426Z" fill="#EB5757"/>
<path fill-rule="evenodd" clip-rule="evenodd" d="M582.292 419.519C580.994 420.269 580.549 421.929 581.299 423.228L585.371 430.282C586.121 431.58 587.781 432.025 589.08 431.275L621.524 412.544L640.256 444.988C641.006 446.287 642.666 446.732 643.965 445.982L651.019 441.909C652.317 441.16 652.762 439.499 652.012 438.201L633.281 405.756L665.511 387.148C666.81 386.398 667.255 384.738 666.505 383.439L662.432 376.385C661.683 375.087 660.022 374.642 658.724 375.392L626.493 394L607.885 361.769C607.135 360.471 605.475 360.026 604.176 360.776L597.122 364.848C595.824 365.598 595.379 367.258 596.129 368.557L614.737 400.787L582.292 419.519Z" fill="black"/>
<path fill-rule="evenodd" clip-rule="evenodd" d="M743.517 460.772C756.552 464.265 769.95 456.529 773.443 443.494C776.936 430.459 769.2 417.06 756.165 413.568C743.13 410.075 729.731 417.81 726.239 430.846C722.746 443.881 730.481 457.279 743.517 460.772ZM740.003 473.884C760.28 479.318 781.122 467.284 786.555 447.007C791.989 426.731 779.955 405.888 759.678 400.455C739.402 395.022 718.559 407.055 713.126 427.332C707.693 447.609 719.726 468.451 740.003 473.884Z" fill="#EB5757"/>
<path fill-rule="evenodd" clip-rule="evenodd" d="M-80.8298 376.752C-82.1283 377.502 -82.5733 379.163 -81.8235 380.461L-77.7511 387.515C-77.0014 388.813 -75.3409 389.258 -74.0423 388.509L-41.5978 369.777L-22.8659 402.221C-22.1161 403.52 -20.4557 403.965 -19.1571 403.215L-12.1034 399.143C-10.8048 398.393 -10.3599 396.732 -11.1097 395.434L-29.8416 362.989L2.38904 344.381C3.68759 343.631 4.13251 341.971 3.38278 340.672L-0.689687 333.618C-1.43941 332.32 -3.09986 331.875 -4.39842 332.625L-36.629 351.233L-55.2373 319.002C-55.987 317.704 -57.6475 317.259 -58.9461 318.009L-65.9998 322.081C-67.2983 322.831 -67.7433 324.491 -66.9935 325.79L-48.3852 358.02L-80.8298 376.752Z" fill="black"/>
<path fill-rule="evenodd" clip-rule="evenodd" d="M80.3945 418.005C93.4297 421.498 106.828 413.762 110.321 400.727C113.814 387.692 106.078 374.293 93.0429 370.801C80.0078 367.308 66.6093 375.044 63.1165 388.079C59.6237 401.114 67.3594 414.512 80.3945 418.005ZM76.8811 431.117C97.158 436.551 118 424.517 123.433 404.241C128.866 383.964 116.833 363.122 96.5564 357.688C76.2795 352.255 55.4373 364.288 50.0042 384.565C44.571 404.842 56.6042 425.684 76.8811 431.117Z" fill="#EB5757"/>
<path fill-rule="evenodd" clip-rule="evenodd" d="M170.927 444.21C169.628 444.96 169.184 446.621 169.933 447.919L174.006 454.973C174.755 456.271 176.416 456.716 177.714 455.967L210.159 437.235L228.891 469.679C229.641 470.978 231.301 471.423 232.6 470.673L239.653 466.601C240.952 465.851 241.397 464.191 240.647 462.892L221.915 430.447L254.146 411.839C255.444 411.089 255.889 409.429 255.14 408.13L251.067 401.077C250.317 399.778 248.657 399.333 247.358 400.083L215.128 418.691L196.52 386.461C195.77 385.162 194.109 384.717 192.811 385.467L185.757 389.539C184.459 390.289 184.014 391.949 184.763 393.248L203.372 425.479L170.927 444.21Z" fill="black"/>
<path fill-rule="evenodd" clip-rule="evenodd" d="M332.151 485.463C345.187 488.956 358.585 481.22 362.078 468.185C365.571 455.15 357.835 441.752 344.8 438.259C331.765 434.766 318.366 442.502 314.873 455.537C311.381 468.572 319.116 481.971 332.151 485.463ZM328.638 498.576C348.915 504.009 369.757 491.976 375.19 471.699C380.623 451.422 368.59 430.58 348.313 425.146C328.036 419.713 307.194 431.747 301.761 452.023C296.328 472.3 308.361 493.142 328.638 498.576Z" fill="#EB5757"/>
<path fill-rule="evenodd" clip-rule="evenodd" d="M422.684 511.669C421.385 512.418 420.94 514.079 421.69 515.377L425.763 522.431C426.512 523.73 428.173 524.175 429.471 523.425L461.916 504.693L480.648 537.138C481.398 538.436 483.058 538.881 484.357 538.131L491.41 534.059C492.709 533.309 493.154 531.649 492.404 530.35L473.672 497.905L505.903 479.297C507.201 478.547 507.646 476.887 506.896 475.588L502.824 468.535C502.074 467.236 500.414 466.791 499.115 467.541L466.885 486.149L448.276 453.919C447.527 452.62 445.866 452.175 444.568 452.925L437.514 456.997C436.215 457.747 435.77 459.408 436.52 460.706L455.128 492.937L422.684 511.669Z" fill="black"/>
<path fill-rule="evenodd" clip-rule="evenodd" d="M583.909 552.921C596.944 556.414 610.343 548.678 613.836 535.643C617.328 522.608 609.593 509.21 596.558 505.717C583.522 502.224 570.124 509.96 566.631 522.995C563.138 536.03 570.874 549.429 583.909 552.921ZM580.396 566.034C600.673 571.467 621.515 559.434 626.948 539.157C632.381 518.88 620.348 498.038 600.071 492.604C579.794 487.171 558.952 499.205 553.519 519.481C548.086 539.758 560.119 560.6 580.396 566.034Z" fill="#EB5757"/>
<path fill-rule="evenodd" clip-rule="evenodd" d="M674.441 579.127C673.142 579.876 672.697 581.537 673.447 582.835L677.519 589.889C678.269 591.188 679.93 591.633 681.228 590.883L713.673 572.151L732.405 604.596C733.154 605.894 734.815 606.339 736.113 605.589L743.167 601.517C744.466 600.767 744.911 599.107 744.161 597.808L725.429 565.364L757.66 546.755C758.958 546.006 759.403 544.345 758.653 543.047L754.581 535.993C753.831 534.694 752.171 534.249 750.872 534.999L718.641 553.607L700.033 521.377C699.283 520.078 697.623 519.633 696.324 520.383L689.271 524.456C687.972 525.205 687.527 526.866 688.277 528.164L706.885 560.395L674.441 579.127Z" fill="black"/>
<path fill-rule="evenodd" clip-rule="evenodd" d="M835.666 620.379C848.701 623.872 862.1 616.137 865.592 603.101C869.085 590.066 861.35 576.668 848.314 573.175C835.279 569.682 821.881 577.418 818.388 590.453C814.895 603.488 822.631 616.887 835.666 620.379ZM832.153 633.492C852.429 638.925 873.272 626.892 878.705 606.615C884.138 586.338 872.105 565.496 851.828 560.063C831.551 554.629 810.709 566.663 805.276 586.94C799.842 607.216 811.876 628.059 832.153 633.492Z" fill="#EB5757"/>
<path fill-rule="evenodd" clip-rule="evenodd" d="M11.3196 536.36C10.0211 537.11 9.57615 538.77 10.3259 540.069L14.3983 547.122C15.1481 548.421 16.8085 548.866 18.1071 548.116L50.5516 529.384L69.2836 561.829C70.0333 563.128 71.6937 563.572 72.9923 562.823L80.046 558.75C81.3446 558.001 81.7895 556.34 81.0398 555.042L62.3079 522.597L94.5384 503.989C95.837 503.239 96.2819 501.578 95.5322 500.28L91.4597 493.226C90.71 491.928 89.0495 491.483 87.751 492.232L55.5204 510.841L36.9121 478.61C36.1624 477.312 34.5019 476.867 33.2034 477.616L26.1496 481.689C24.8511 482.439 24.4062 484.099 25.1559 485.398L43.7642 517.628L11.3196 536.36Z" fill="black"/>
<path fill-rule="evenodd" clip-rule="evenodd" d="M172.545 577.613C185.58 581.105 198.979 573.37 202.471 560.335C205.964 547.3 198.228 533.901 185.193 530.408C172.158 526.915 158.76 534.651 155.267 547.686C151.774 560.721 159.51 574.12 172.545 577.613ZM169.031 590.725C189.308 596.158 210.151 584.125 215.584 563.848C221.017 543.571 208.984 522.729 188.707 517.296C168.43 511.863 147.588 523.896 142.155 544.173C136.721 564.45 148.755 585.292 169.031 590.725Z" fill="#EB5757"/>
<path fill-rule="evenodd" clip-rule="evenodd" d="M263.076 603.818C261.778 604.568 261.333 606.228 262.083 607.527L266.155 614.581C266.905 615.879 268.565 616.324 269.864 615.574L302.308 596.842L321.04 629.287C321.79 630.586 323.451 631.031 324.749 630.281L331.803 626.208C333.101 625.459 333.546 623.798 332.797 622.5L314.065 590.055L346.295 571.447C347.594 570.697 348.039 569.036 347.289 567.738L343.217 560.684C342.467 559.386 340.806 558.941 339.508 559.69L307.277 578.299L288.669 546.068C287.919 544.77 286.259 544.325 284.96 545.075L277.906 549.147C276.608 549.897 276.163 551.557 276.913 552.856L295.521 585.086L263.076 603.818Z" fill="black"/>
<path fill-rule="evenodd" clip-rule="evenodd" d="M424.302 645.071C437.337 648.564 450.735 640.828 454.228 627.793C457.721 614.758 449.985 601.359 436.95 597.866C423.915 594.374 410.516 602.109 407.024 615.144C403.531 628.18 411.267 641.578 424.302 645.071ZM420.788 658.183C441.065 663.616 461.907 651.583 467.341 631.306C472.774 611.029 460.74 590.187 440.464 584.754C420.187 579.321 399.345 591.354 393.911 611.631C388.478 631.908 400.511 652.75 420.788 658.183Z" fill="#EB5757"/>
<path fill-rule="evenodd" clip-rule="evenodd" d="M514.834 671.276C513.536 672.026 513.091 673.686 513.841 674.985L517.913 682.039C518.663 683.337 520.323 683.782 521.622 683.032L554.066 664.3L572.798 696.745C573.548 698.044 575.208 698.489 576.507 697.739L583.561 693.666C584.859 692.917 585.304 691.256 584.554 689.958L565.823 657.513L598.053 638.905C599.352 638.155 599.797 636.495 599.047 635.196L594.974 628.142C594.225 626.844 592.564 626.399 591.266 627.148L559.035 645.757L540.427 613.526C539.677 612.228 538.017 611.783 536.718 612.533L529.664 616.605C528.366 617.355 527.921 619.015 528.671 620.314L547.279 652.544L514.834 671.276Z" fill="black"/>
<path fill-rule="evenodd" clip-rule="evenodd" d="M676.059 712.529C689.094 716.022 702.492 708.286 705.985 695.251C709.478 682.216 701.742 668.817 688.707 665.324C675.672 661.832 662.273 669.567 658.781 682.603C655.288 695.638 663.023 709.036 676.059 712.529ZM672.545 725.641C692.822 731.074 713.664 719.041 719.097 698.764C724.531 678.487 712.497 657.645 692.22 652.212C671.944 646.779 651.101 658.812 645.668 679.089C640.235 699.366 652.268 720.208 672.545 725.641Z" fill="#EB5757"/>
<path fill-rule="evenodd" clip-rule="evenodd" d="M766.591 738.734C765.293 739.484 764.848 741.144 765.597 742.443L769.67 749.497C770.42 750.795 772.08 751.24 773.379 750.49L805.823 731.759L824.555 764.203C825.305 765.502 826.965 765.947 828.264 765.197L835.317 761.125C836.616 760.375 837.061 758.714 836.311 757.416L817.579 724.971L849.81 706.363C851.108 705.613 851.553 703.953 850.804 702.654L846.731 695.6C845.981 694.302 844.321 693.857 843.022 694.607L810.792 713.215L792.184 680.984C791.434 679.686 789.773 679.241 788.475 679.991L781.421 684.063C780.123 684.813 779.678 686.473 780.427 687.772L799.036 720.002L766.591 738.734Z" fill="black"/>
<path fill-rule="evenodd" clip-rule="evenodd" d="M12.9365 669.762C25.9717 673.255 39.3702 665.519 42.8629 652.484C46.3557 639.449 38.6201 626.051 25.5849 622.558C12.5498 619.065 -0.848746 626.801 -4.3415 639.836C-7.83426 652.871 -0.0986247 666.269 12.9365 669.762ZM9.42308 682.875C29.7 688.308 50.5421 676.275 55.9753 655.998C61.4085 635.721 49.3753 614.879 29.0984 609.445C8.82146 604.012 -12.0207 616.045 -17.4539 636.322C-22.887 656.599 -10.8538 677.441 9.42308 682.875Z" fill="#EB5757"/>
<path fill-rule="evenodd" clip-rule="evenodd" d="M103.469 695.968C102.17 696.717 101.726 698.378 102.475 699.676L106.548 706.73C107.297 708.029 108.958 708.473 110.256 707.724L142.701 688.992L161.433 721.437C162.183 722.735 163.843 723.18 165.142 722.43L172.195 718.358C173.494 717.608 173.939 715.948 173.189 714.649L154.457 682.204L186.688 663.596C187.986 662.846 188.431 661.186 187.682 659.887L183.609 652.834C182.859 651.535 181.199 651.09 179.9 651.84L147.67 670.448L129.062 638.218C128.312 636.919 126.651 636.474 125.353 637.224L118.299 641.296C117 642.046 116.556 643.707 117.305 645.005L135.914 677.236L103.469 695.968Z" fill="black"/>
<path fill-rule="evenodd" clip-rule="evenodd" d="M264.693 737.22C277.729 740.713 291.127 732.977 294.62 719.942C298.113 706.907 290.377 693.509 277.342 690.016C264.307 686.523 250.908 694.259 247.415 707.294C243.923 720.329 251.658 733.728 264.693 737.22ZM261.18 750.333C281.457 755.766 302.299 743.733 307.732 723.456C313.165 703.179 301.132 682.337 280.855 676.904C260.578 671.47 239.736 683.504 234.303 703.78C228.87 724.057 240.903 744.9 261.18 750.333Z" fill="#EB5757"/>
<path fill-rule="evenodd" clip-rule="evenodd" d="M355.226 763.426C353.927 764.175 353.482 765.836 354.232 767.134L358.305 774.188C359.054 775.487 360.715 775.932 362.013 775.182L394.458 756.45L413.19 788.895C413.94 790.193 415.6 790.638 416.899 789.888L423.952 785.816C425.251 785.066 425.696 783.406 424.946 782.107L406.214 749.663L438.445 731.054C439.743 730.304 440.188 728.644 439.438 727.345L435.366 720.292C434.616 718.993 432.956 718.548 431.657 719.298L399.427 737.906L380.818 705.676C380.069 704.377 378.408 703.932 377.11 704.682L370.056 708.755C368.757 709.504 368.312 711.165 369.062 712.463L387.67 744.694L355.226 763.426Z" fill="black"/>
<path fill-rule="evenodd" clip-rule="evenodd" d="M516.451 804.678C529.486 808.171 542.885 800.435 546.378 787.4C549.87 774.365 542.135 760.967 529.1 757.474C516.064 753.981 502.666 761.717 499.173 774.752C495.68 787.787 503.416 801.186 516.451 804.678ZM512.938 817.791C533.215 823.224 554.057 811.191 559.49 790.914C564.923 770.637 552.89 749.795 532.613 744.362C512.336 738.928 491.494 750.962 486.061 771.238C480.628 791.515 492.661 812.358 512.938 817.791Z" fill="#EB5757"/>
<path fill-rule="evenodd" clip-rule="evenodd" d="M606.983 830.884C605.684 831.634 605.239 833.294 605.989 834.593L610.061 841.646C610.811 842.945 612.472 843.39 613.77 842.64L646.215 823.908L664.947 856.353C665.696 857.651 667.357 858.096 668.655 857.347L675.709 853.274C677.008 852.524 677.453 850.864 676.703 849.565L657.971 817.121L690.202 798.512C691.5 797.763 691.945 796.102 691.195 794.804L687.123 787.75C686.373 786.451 684.713 786.006 683.414 786.756L651.183 805.364L632.575 773.134C631.825 771.835 630.165 771.39 628.866 772.14L621.813 776.213C620.514 776.962 620.069 778.623 620.819 779.921L639.427 812.152L606.983 830.884Z" fill="black"/>
<path fill-rule="evenodd" clip-rule="evenodd" d="M768.208 872.136C781.243 875.629 794.642 867.894 798.134 854.858C801.627 841.823 793.892 828.425 780.856 824.932C767.821 821.439 754.423 829.175 750.93 842.21C747.437 855.245 755.173 868.644 768.208 872.136ZM764.695 885.249C784.971 890.682 805.814 878.649 811.247 858.372C816.68 838.095 804.647 817.253 784.37 811.82C764.093 806.387 743.251 818.42 737.818 838.697C732.384 858.974 744.418 879.816 764.695 885.249Z" fill="#EB5757"/>
<path fill-rule="evenodd" clip-rule="evenodd" d="M-56.1384 788.117C-57.4369 788.867 -57.8819 790.527 -57.1321 791.826L-53.0597 798.88C-52.3099 800.178 -50.6495 800.623 -49.3509 799.873L-16.9064 781.141L1.82555 813.586C2.57527 814.885 4.23573 815.33 5.53428 814.58L12.588 810.507C13.8866 809.758 14.3315 808.097 13.5818 806.799L-5.15016 774.354L27.0804 755.746C28.379 754.996 28.8239 753.335 28.0742 752.037L24.0017 744.983C23.252 743.685 21.5915 743.24 20.293 743.989L-11.9376 762.598L-30.5459 730.367C-31.2956 729.069 -32.9561 728.624 -34.2547 729.373L-41.3084 733.446C-42.6069 734.196 -43.0518 735.856 -42.3021 737.155L-23.6938 769.385L-56.1384 788.117Z" fill="black"/>
<path fill-rule="evenodd" clip-rule="evenodd" d="M105.087 829.37C118.122 832.863 131.521 825.127 135.013 812.092C138.506 799.057 130.77 785.658 117.735 782.165C104.7 778.673 91.3016 786.408 87.8089 799.443C84.3161 812.478 92.0518 825.877 105.087 829.37ZM101.573 842.482C121.85 847.915 142.693 835.882 148.126 815.605C153.559 795.328 141.526 774.486 121.249 769.053C100.972 763.62 80.1297 775.653 74.6965 795.93C69.2634 816.207 81.2966 837.049 101.573 842.482Z" fill="#EB5757"/>
<path fill-rule="evenodd" clip-rule="evenodd" d="M195.618 855.575C194.32 856.325 193.875 857.985 194.625 859.284L198.697 866.338C199.447 867.636 201.107 868.081 202.406 867.331L234.85 848.6L253.582 881.044C254.332 882.343 255.993 882.788 257.291 882.038L264.345 877.965C265.643 877.216 266.088 875.555 265.339 874.257L246.607 841.812L278.837 823.204C280.136 822.454 280.581 820.794 279.831 819.495L275.759 812.441C275.009 811.143 273.348 810.698 272.05 811.448L239.819 830.056L221.211 797.825C220.461 796.527 218.801 796.082 217.502 796.832L210.448 800.904C209.15 801.654 208.705 803.314 209.455 804.613L228.063 836.843L195.618 855.575Z" fill="black"/>
<path fill-rule="evenodd" clip-rule="evenodd" d="M356.844 896.828C369.879 900.321 383.277 892.585 386.77 879.55C390.263 866.515 382.527 853.116 369.492 849.623C356.457 846.131 343.058 853.866 339.566 866.901C336.073 879.937 343.809 893.335 356.844 896.828ZM353.33 909.94C373.607 915.373 394.449 903.34 399.883 883.063C405.316 862.786 393.282 841.944 373.006 836.511C352.729 831.078 331.887 843.111 326.453 863.388C321.02 883.665 333.053 904.507 353.33 909.94Z" fill="#EB5757"/>
<path fill-rule="evenodd" clip-rule="evenodd" d="M447.376 923.033C446.078 923.783 445.633 925.443 446.383 926.742L450.455 933.796C451.205 935.094 452.865 935.539 454.164 934.789L486.608 916.058L505.34 948.502C506.09 949.801 507.75 950.246 509.049 949.496L516.103 945.423C517.401 944.674 517.846 943.013 517.096 941.715L498.364 909.27L530.595 890.662C531.894 889.912 532.339 888.252 531.589 886.953L527.516 879.899C526.767 878.601 525.106 878.156 523.808 878.906L491.577 897.514L472.969 865.283C472.219 863.985 470.559 863.54 469.26 864.29L462.206 868.362C460.908 869.112 460.463 870.772 461.213 872.071L479.821 904.301L447.376 923.033Z" fill="black"/>
<path fill-rule="evenodd" clip-rule="evenodd" d="M608.601 964.286C621.636 967.779 635.034 960.043 638.527 947.008C642.02 933.973 634.284 920.574 621.249 917.082C608.214 913.589 594.815 921.324 591.323 934.36C587.83 947.395 595.565 960.793 608.601 964.286ZM605.087 977.398C625.364 982.832 646.206 970.798 651.639 950.521C657.073 930.245 645.039 909.402 624.762 903.969C604.486 898.536 583.643 910.569 578.21 930.846C572.777 951.123 584.81 971.965 605.087 977.398Z" fill="#EB5757"/>
<path fill-rule="evenodd" clip-rule="evenodd" d="M36.011 947.725C34.7125 948.474 34.2676 950.135 35.0173 951.433L39.0897 958.487C39.8395 959.786 41.4999 960.231 42.7985 959.481L75.243 940.749L93.975 973.194C94.7247 974.492 96.3851 974.937 97.6837 974.187L104.737 970.115C106.036 969.365 106.481 967.705 105.731 966.406L86.9992 933.962L119.23 915.353C120.528 914.604 120.973 912.943 120.224 911.645L116.151 904.591C115.401 903.292 113.741 902.847 112.442 903.597L80.2118 922.205L61.6035 889.975C60.8538 888.676 59.1933 888.231 57.8948 888.981L50.841 893.054C49.5425 893.803 49.0976 895.464 49.8473 896.762L68.4556 928.993L36.011 947.725Z" fill="black"/>
</g>
<defs>
<clipPath id="clip0_626_7541">
<rect width="806" height="900" fill="white"/>
</clipPath>
</defs>
</svg>
