<svg width="24" height="24" viewBox="0 0 24 24" fill="none" xmlns="http://www.w3.org/2000/svg">
<path d="M5 3C3.89844 3 3 3.89844 3 5V19C3 20.1016 3.89844 21 5 21H19C20.1016 21 21 20.1016 21 19V5C21 3.89844 20.1016 3 19 3H5ZM6.40625 7.6875H9C11.3008 7.6875 11.6875 9.10156 11.6875 10C11.6875 11.3008 10.793 11.7109 10.5938 11.8125C10.793 11.9141 11.8125 12.1875 11.8125 13.6875C11.9141 15.4883 10.7891 16.1875 9.1875 16.1875H6.40625V7.6875ZM13.4062 7.6875H17.0938V8.6875H13.4062V7.6875ZM8.09375 9.09375V11.1875H9C9.60156 11.1875 10 10.9883 10 10.1875C10 9.48828 9.69922 9.09375 9 9.09375H8.09375ZM15.5938 9.8125C16.9922 9.8125 18 10.6055 18 12.9062V13.5938H14.5938C14.5938 13.8945 14.6133 15 15.8125 15C16.6133 15 16.9883 14.6055 17.1875 14.4062L17.9062 15.4062C17.8047 15.5078 17.1133 16.3125 15.8125 16.3125C14.3125 16.3125 13.0938 15.5078 13.0938 13.4062V12.9062C13.0938 10.6055 14.293 9.8125 15.5938 9.8125ZM15.4062 11.0938C15.1055 11.0938 14.5 11.207 14.5 12.4062H16.1875C16.1875 12.4062 16.4062 11.0938 15.4062 11.0938ZM8.09375 12.5V14.8125H9.1875C9.78906 14.8125 10.0938 14.3867 10.0938 13.6875C10.1953 12.8867 9.91406 12.5 9.3125 12.5H8.09375Z" fill="white"/>
</svg>
