<svg width="24" height="24" viewBox="0 0 24 24" fill="none" xmlns="http://www.w3.org/2000/svg">
<path fill-rule="evenodd" clip-rule="evenodd" d="M11.9554 2C17.5554 2 22 6.44464 22 11.9554C22 17.5554 17.5554 22 11.9554 22C6.44429 22 2 17.5554 2 11.9554C2 6.44429 6.44464 2 11.9554 2ZM17.1996 6.26643C15.8664 5.022 13.9996 4.22193 11.9554 4.22193C7.68893 4.22193 4.22179 7.68857 4.22179 11.9555C4.22179 16.3112 7.68843 19.7776 11.9554 19.7776C13.9999 19.7776 15.8664 18.9777 17.1996 17.7331C13.1107 19.5998 8.39964 16.5776 8.39964 11.9553C8.39964 7.42207 13.1107 4.39993 17.1996 6.26636V6.26643Z" fill="white"/>
</svg>
