<svg width="24" height="24" viewBox="0 0 24 24" fill="none" xmlns="http://www.w3.org/2000/svg">
<path d="M11.9993 19.9968C10.479 19.9964 8.9875 19.5802 7.6867 18.7928C6.38608 18.0055 5.32545 16.8774 4.61985 15.5306L2.8501 16.4638C3.92305 18.51 5.65102 20.1378 7.75765 21.0868C9.86434 22.0356 12.2283 22.2511 14.4714 21.6987C16.715 21.1461 18.7087 19.8576 20.1339 18.039C21.5589 16.2202 22.3334 13.9763 22.3334 11.6657C22.3334 9.35513 21.5589 7.11125 20.1339 5.29293C18.7087 3.47408 16.7151 2.1856 14.4714 1.6332C12.2281 1.08055 9.86404 1.29608 7.75765 2.24512C5.65096 3.19392 3.92305 4.82166 2.8501 6.86787L4.61985 7.79786C5.53823 6.04508 7.05014 4.67613 8.88524 3.93607C10.7206 3.19624 12.7591 3.13351 14.6363 3.75913C16.5137 4.38504 18.1068 5.65816 19.1312 7.35143C20.1554 9.04445 20.5436 11.0467 20.2262 12.9999C19.9091 14.9531 18.9073 16.7297 17.3998 18.0116C15.8925 19.2936 13.9781 19.9974 11.9994 19.9969L11.9993 19.9968Z" fill="white"/>
<path d="M2.3335 12.664H12.9196L10.2531 15.3305L11.6664 16.7436L16.0395 12.3705C16.2267 12.1831 16.3318 11.929 16.3318 11.664C16.3318 11.3989 16.2267 11.1448 16.0395 10.9574L11.6664 6.58435L10.2531 7.99746L12.9196 10.664H2.3335V12.664Z" fill="white"/>
</svg>
