<svg width="24" height="24" viewBox="0 0 24 24" fill="none" xmlns="http://www.w3.org/2000/svg">
<path d="M12.3342 19.9968C13.8545 19.9964 15.346 19.5802 16.6468 18.7928C17.9474 18.0055 19.008 16.8774 19.7136 15.5306L21.4834 16.4638C20.4104 18.51 18.6825 20.1378 16.5758 21.0868C14.4692 22.0356 12.1052 22.2511 9.86206 21.6987C7.61848 21.1461 5.62482 19.8576 4.19957 18.039C2.77461 16.2202 2.00014 13.9763 2.00014 11.6657C2.00014 9.35513 2.77461 7.11125 4.19957 5.29293C5.62476 3.47408 7.61842 2.1856 9.86206 1.6332C12.1054 1.08055 14.4695 1.29608 16.5758 2.24512C18.6825 3.19392 20.4104 4.82166 21.4834 6.86787L19.7136 7.79786C18.7953 6.04508 17.2834 4.67613 15.4483 3.93607C13.6129 3.19624 11.5744 3.13351 9.69719 3.75913C7.81977 4.38504 6.22668 5.65816 5.20229 7.35143C4.17814 9.04445 3.78989 11.0467 4.10725 12.9999C4.42438 14.9531 5.4262 16.7297 6.93371 18.0116C8.44098 19.2936 10.3554 19.9973 12.3342 19.9968Z" fill="white"/>
<path d="M9 12.664H16.5861L13.9196 15.3305L15.3329 16.7436L19.706 12.3705C19.8932 12.1831 19.9983 11.929 19.9983 11.664C19.9983 11.3989 19.8932 11.1448 19.706 10.9574L15.3329 6.58435L13.9196 7.99746L16.5861 10.664H9V12.664Z" fill="white"/>
</svg>
