<svg width="24" height="24" viewBox="0 0 24 24" fill="none" xmlns="http://www.w3.org/2000/svg">
<path d="M22.333 20.9951L18.8683 17.5304C20.1825 15.9295 20.971 13.8745 20.971 11.6523C20.971 6.51478 16.7895 2.33331 11.652 2.33331C6.51447 2.33331 2.33301 6.51478 2.33301 11.6523C2.33301 16.7898 6.51447 20.9713 11.652 20.9713C13.8742 20.9713 15.9293 20.1828 17.5301 18.8686L20.9948 22.3333L22.333 20.9951ZM11.652 19.0597C7.56598 19.0597 4.24473 15.7383 4.24473 11.6524C4.24473 7.56645 7.56607 4.24512 11.652 4.24512C15.7379 4.24512 19.0593 7.56645 19.0593 11.6524C19.0593 15.7383 15.7379 19.0597 11.652 19.0597Z" fill="white"/>
</svg>
