<svg width="24" height="24" viewBox="0 0 24 24" fill="none" xmlns="http://www.w3.org/2000/svg">
<path d="M5.77827 21.9998C7.86893 21.9998 9.55658 20.2871 9.55658 18.1964V17.9697V5.50128L19.884 4.26699V10.7657C19.3549 10.4886 18.7252 10.3124 18.0955 10.3124C15.9797 10.3124 14.292 12.0251 14.292 14.1158C14.292 16.2065 16.0048 17.9193 18.0955 17.9193C20.1861 17.9193 21.8991 16.2316 21.8991 14.141V2L7.54148 3.73807V14.8211C7.01243 14.544 6.40803 14.3678 5.77831 14.3678C3.68765 14.3678 2 16.0806 2 18.1713C1.99982 20.2619 3.68747 22 5.77813 22L5.77827 21.9998ZM18.0956 15.9293C17.1132 15.9293 16.3071 15.1232 16.3071 14.1408C16.3071 13.1585 17.1132 12.3524 18.0956 12.3524C19.0779 12.3524 19.8841 13.1585 19.8841 14.1408C19.8841 15.1232 19.0779 15.9293 18.0956 15.9293ZM5.77827 16.3826C6.76063 16.3826 7.54143 17.1888 7.54143 18.1711C7.54143 19.1535 6.76063 19.9847 5.77827 19.9847C4.79591 19.9847 4.0151 19.1786 4.0151 18.1962C4.0151 17.2139 4.79591 16.3826 5.77827 16.3826Z" fill="white"/>
</svg>
