<svg width="24" height="24" viewBox="0 0 24 24" fill="none" xmlns="http://www.w3.org/2000/svg">
<path d="M11.7341 1V3.53734C7.66468 3.53734 4.12206 6.36078 3.21799 10.3285C2.31426 14.2964 4.2838 18.3778 7.95199 20.1402C11.6201 21.9024 16.0346 20.8902 18.5676 17.705C21.1006 14.52 21.0936 9.98778 18.5506 6.81086L16.8457 8.17473C18.7599 10.5661 18.7664 13.9496 16.8603 16.3467C14.9538 18.7441 11.6566 19.5004 8.89577 18.1738C6.13485 16.8473 4.66639 13.801 5.34688 10.8145C6.02703 7.82786 8.67136 5.7197 11.7344 5.7197V8.33676L16.0989 4.66836L11.7341 1Z" fill="white"/>
</svg>
