<svg width="24" height="24" viewBox="0 0 24 24" fill="none" xmlns="http://www.w3.org/2000/svg">
<path d="M2.33301 7.73341V16.9335H7.67392L14.4126 22.3333V2.33325L7.67392 7.73301L2.33301 7.73341ZM7.11953 15.1153H4.15131V9.5516H7.11953V15.1153ZM12.5968 18.5517L8.93772 15.6177V9.04953L12.5968 6.11539V18.5517Z" fill="white"/>
<path d="M16.2015 13.9606C15.9048 14.0933 15.7014 14.3742 15.6679 14.6977C15.6345 15.0211 15.7762 15.3378 16.0395 15.5284C16.3028 15.7191 16.648 15.7548 16.9448 15.6219C17.7991 15.2443 18.473 14.5491 18.8239 13.6832C19.1745 12.8174 19.1745 11.8491 18.8239 10.9834C18.473 10.1175 17.7991 9.42232 16.9448 9.04468C16.6483 8.91453 16.3049 8.95178 16.0433 9.14265C15.7818 9.33353 15.6416 9.64915 15.6751 9.97114C15.7085 10.2931 15.9108 10.5731 16.206 10.7059C16.6297 10.892 16.9641 11.2359 17.1382 11.6647C17.3122 12.0934 17.3122 12.5731 17.1382 13.0018C16.9641 13.4306 16.6298 13.7745 16.206 13.9606L16.2015 13.9606Z" fill="white"/>
<path d="M17.0014 6.19695C16.7637 6.14796 16.5164 6.196 16.3145 6.33028C16.1123 6.46471 15.9725 6.67414 15.9257 6.91226C15.879 7.15037 15.9294 7.3972 16.0657 7.59793C16.2021 7.79863 16.4129 7.93656 16.6513 7.9811C17.9941 8.25886 19.133 9.14202 19.7362 10.3734C20.3396 11.6048 20.3396 13.0459 19.7362 14.2772C19.133 15.5085 17.9941 16.3917 16.6513 16.6696C16.3549 16.7299 16.1077 16.9336 15.9922 17.2131C15.8764 17.4926 15.9075 17.8114 16.0748 18.0635C16.2422 18.3154 16.5239 18.4677 16.8264 18.4696C16.8852 18.4693 16.9439 18.4631 17.0014 18.4515C18.8997 18.0644 20.5115 16.8193 21.3659 15.0804C22.2199 13.3414 22.2199 11.3048 21.3659 9.56575C20.5117 7.82679 18.8999 6.5817 17.0014 6.19457L17.0014 6.19695Z" fill="white"/>
</svg>
