<svg width="24" height="24" viewBox="0 0 24 24" fill="none" xmlns="http://www.w3.org/2000/svg">
<path d="M12.0731 19.2109C16.0893 19.2109 19.3569 15.9434 19.3569 11.9264C19.3569 7.90975 16.0891 4.64191 12.0731 4.64191C8.05641 4.64191 4.78857 7.90968 4.78857 11.9264C4.78909 15.9431 8.05688 19.2109 12.0731 19.2109Z" fill="white"/>
<path d="M5.52997 6.46285L4.3417 5.46948C3.58452 6.37498 2.99788 7.39529 2.59766 8.50114L4.05396 9.02763C4.39251 8.09233 4.88892 7.22932 5.52997 6.46285Z" fill="white"/>
<path d="M10.5672 3.53502L10.2956 2.0105C9.1363 2.21684 8.03152 2.62253 7.01221 3.21562L7.79116 4.554C8.65306 4.0524 9.58709 3.70968 10.5672 3.53502Z" fill="white"/>
<path d="M2 11.947C2.00259 13.1303 2.20816 14.2886 2.61125 15.3898L4.06549 14.8573C3.72436 13.9265 3.55042 12.946 3.54834 11.9439L2 11.947Z" fill="white"/>
<path d="M17.0818 3.18595C16.0592 2.59854 14.9517 2.19962 13.7904 2L13.5283 3.52605C14.5097 3.6948 15.4458 4.03205 16.3106 4.5287L17.0818 3.18595Z" fill="white"/>
<path d="M19.767 5.42501L18.5845 6.42508C19.2297 7.1877 19.731 8.04728 20.0748 8.98052L21.5275 8.44497C21.1215 7.34197 20.5292 6.32604 19.7671 5.42499L19.767 5.42501Z" fill="white"/>
<path d="M5.55041 17.4159L4.36572 18.4134C5.12477 19.3144 6.02655 20.0698 7.04586 20.6577L7.81964 19.3165C6.95667 18.819 6.19299 18.1793 5.55041 17.4159Z" fill="white"/>
<path d="M20.5979 11.8893V11.9271C20.5979 12.9293 20.4255 13.9102 20.0864 14.8421L21.5417 15.372C21.943 14.2698 22.1468 13.1108 22.1468 11.9272V11.8893L20.5979 11.8893Z" fill="white"/>
<path d="M10.6004 20.3252L10.335 21.8507C10.905 21.95 11.4898 22 12.0733 22C12.6623 22 13.253 21.9487 13.8293 21.8473L13.5613 20.3223C12.5902 20.4932 11.5701 20.4939 10.6004 20.3252Z" fill="white"/>
<path d="M16.3394 19.3091L17.1158 20.6488C18.1332 20.0591 19.0338 19.3024 19.7912 18.3998L18.605 17.4044C17.9634 18.169 17.2008 18.8099 16.3394 19.3091H16.3394Z" fill="white"/>
</svg>
