<svg width="24" height="24" viewBox="0 0 24 24" fill="none" xmlns="http://www.w3.org/2000/svg">
<path d="M18.1187 5.1287V3.16693H5.88354V5.1287H1.98096V6.79513C1.98096 9.53752 3.83736 11.9634 6.4953 12.6806L7.61334 12.976C7.78211 13.2291 7.97193 13.4611 8.18294 13.6932C8.87908 14.4104 9.72284 14.8745 10.6933 15.1065V17.005C10.6933 18.2918 9.65959 19.3255 8.37276 19.3255V20.8234H15.6084V19.3255C14.3216 19.3255 13.2878 18.2918 13.2878 17.005V15.1065C14.2583 14.8955 15.102 14.4314 15.7982 13.6932C16.0092 13.4822 16.199 13.2291 16.3678 12.976L17.4858 12.6806C20.1438 11.9635 22.0002 9.53745 22.0002 6.79513V5.1287H18.1187ZM3.62637 6.79513V6.77409H5.88362C5.90466 7.51249 5.98912 9.26323 6.60081 10.9931C4.82886 10.3602 3.62637 8.69377 3.62637 6.79518V6.79513ZM14.0473 11.7736L12.0011 10.6767L9.95489 11.7736L10.3767 9.4953L8.68911 7.89211L10.9884 7.57574L12.001 5.4873L13.0135 7.57574L15.3128 7.89211L13.6252 9.4953L14.0473 11.7736ZM20.3758 6.79513C20.3758 8.69361 19.1733 10.3602 17.4014 10.993C18.0131 9.26317 18.0975 7.49123 18.1186 6.77403H20.3758V6.79513Z" fill="white"/>
</svg>
